<?xml version="1.0" encoding="UTF-8"?>
<svg width="39px" height="49px" viewBox="0 0 39 49" version="1.1" xmlns="http://www.w3.org/2000/svg" xmlns:xlink="http://www.w3.org/1999/xlink">
    <!-- Generator: Sketch 46.2 (44496) - http://www.bohemiancoding.com/sketch -->
    <title>Group 7</title>
    <desc>Created with Sketch.</desc>
    <defs></defs>
    <g id="Page-1" stroke="none" stroke-width="1" fill="none" fill-rule="evenodd">
        <g id="Group-7" fill-rule="nonzero" fill="#E54D8C">
            <g id="noun_1191164_cc">
                <path d="M34.2649591,44.7719404 C33.8083144,45.2388926 33.459133,45.8016759 33.242231,46.4202934 L32.9373794,47.2891542 C32.7657805,47.7131189 32.8393436,48.198051 33.1287547,48.5507107 C33.4181657,48.9033703 33.876389,49.0664424 34.3208276,48.9749445 C34.7652662,48.8834466 35.123689,48.5522492 35.2532685,48.1133307 L35.5581201,47.24447 C35.6568494,46.9667632 35.8146096,46.7142576 36.0203146,46.504697 C37.1364649,45.3578008 38.9999935,42.9398853 38.9999935,39.6431792 L38.9999935,31.2276418 C39.003747,29.1237982 37.3822103,27.3819342 35.3024381,27.2557067 C34.8898908,27.2437997 34.4781401,27.2991235 34.0830315,27.4195491 C33.5472929,26.2317259 32.4510902,25.3996854 31.1721901,25.2101602 C30.6271347,25.133609 30.0721607,25.1759343 29.5446757,25.3342832 C29.0385289,24.2051091 28.0210451,23.3942901 26.8157618,23.1596487 C26.1584676,23.0362436 25.4806885,23.0875728 24.848977,23.3085963 L24.6473815,15.7172354 C24.6010972,13.8629222 23.2432417,12.3097076 21.4267715,12.0332656 C20.3846334,11.8921772 19.3321251,12.20395 18.5306271,12.8911581 C17.7291291,13.5783662 17.2538311,14.5765416 17.222769,15.6377967 L16.7310728,33.844154 C16.6492608,33.7711905 16.5736061,33.6914766 16.5048926,33.6058379 L15.0888075,31.1581329 C13.8916459,29.1128576 11.5992622,27.9887219 9.26712455,28.3033046 C8.41989573,28.4212265 7.68263303,28.9484149 7.29118133,29.7162263 C6.89972962,30.4840376 6.90314681,31.3962474 7.30033977,32.1610465 L12.7434167,42.7859728 C13.2370778,43.7391574 13.9869268,44.5324573 14.9068799,45.0748004 L15.0494718,45.1443093 L17.7734687,46.2862406 L17.866891,46.3209951 C18.3107966,46.4654912 18.6608748,46.8134605 18.8109477,47.2593647 L19.0961315,48.0934711 C19.3211031,48.7349139 20.0155986,49.0738635 20.6531492,48.853376 C21.2906999,48.6328886 21.6335748,47.9351798 21.4218545,47.2891542 L21.1366707,46.4550479 C20.7395781,45.2893765 19.8326017,44.3735541 18.6781897,43.9725884 L16.0721999,42.8803063 C15.5725301,42.5761985 15.1645174,42.1401735 14.892129,41.6192169 L9.41955037,30.9992555 C9.39304768,30.9499627 9.3925227,30.890597 9.41814943,30.8408341 C9.44377616,30.7910713 9.49220742,30.7574111 9.54739138,30.7510096 C10.9048191,30.5620213 12.2420604,31.2136801 12.9400951,32.4043276 L14.4151837,34.9165765 C14.4390081,34.9594524 14.465276,35.0008963 14.4938551,35.0406995 C15.4772475,36.3415082 17.1883503,37.1656847 18.5896844,36.2273151 C18.9215683,36.0058055 19.1267657,35.6358078 19.1403842,35.2343313 L19.6960009,15.7073055 C19.7065753,15.3478327 19.8680514,15.0098631 20.1401152,14.7777743 C20.4121789,14.5456856 20.7691547,14.4413807 21.1219198,14.4909004 C21.7438059,14.6011362 22.1989191,15.1442432 22.2036515,15.7817793 L22.4740844,26.0343367 C22.4912524,26.6247555 22.9180933,27.1211709 23.4946109,27.2212074 C24.0711284,27.321244 24.6375996,26.9971869 24.848977,26.446425 C25.0843541,25.8156459 25.7390921,25.4513961 26.392903,25.587494 C27.0452256,25.7466748 27.4983298,26.3449747 27.4795516,27.0223556 L27.4795516,27.3053559 C27.4788174,27.823972 27.7974831,28.2883814 28.2786133,28.4698733 C28.7597435,28.6513652 29.3019059,28.5116773 29.6380979,28.1196026 C29.9415467,27.7619051 30.4061472,27.587388 30.8673384,27.6578652 C31.5531915,27.7930172 32.0430728,28.4071493 32.0277414,29.1125864 L32.0277414,29.3856569 C32.0270072,29.9042729 32.3456729,30.3686824 32.8268031,30.5501743 C33.3079333,30.7316662 33.8500957,30.5919783 34.1862877,30.1999036 C34.4513157,29.8798646 34.8450739,29.6974799 35.2581854,29.7034117 C36.0189027,29.7688985 36.5969308,30.4222558 36.5759313,31.1928874 L36.5759313,39.6431792 C36.5415125,42.1504632 34.9484168,44.061957 34.2649591,44.7719404 Z" id="Shape"></path>
                <path d="M0,5 C0,5.62419163 0.556608019,6.13019892 1.24321881,6.13019892 L4.25678119,6.13019892 L4.25678119,8.86980108 C4.25678119,9.49399271 4.81338921,10 5.5,10 C6.18661079,10 6.74321881,9.49399271 6.74321881,8.86980108 L6.74321881,6.13019892 L9.75678119,6.13019892 C10.443392,6.13019892 11,5.62419163 11,5 C11,4.37580837 10.443392,3.86980108 9.75678119,3.86980108 L6.74321881,3.86980108 L6.74321881,1.13019892 C6.74321881,0.50600729 6.18661079,0 5.5,0 C4.81338921,0 4.25678119,0.50600729 4.25678119,1.13019892 L4.25678119,3.86980108 L1.24321881,3.86980108 C0.556608019,3.86980108 0,4.37580837 0,5 Z" id="Shape"></path>
                <path d="M17.1329305,5 C16.5072303,5 16,5.67157288 16,6.5 C16,7.32842712 16.5072303,8 17.1329305,8 L23.8670695,8 C24.4927697,8 25,7.32842712 25,6.5 C25,5.67157288 24.4927697,5 23.8670695,5 L17.1329305,5 Z" id="Shape"></path>
                <path d="M1.32995701,23.670043 C1.54066282,23.8812821 1.82676153,24 2.12512192,24 C2.4234823,24 2.70958101,23.8812821 2.92028682,23.670043 L5.00029446,21.5900354 L7.0803021,23.670043 C7.51945955,24.1092004 8.23147446,24.1092004 8.67063191,23.670043 C9.10978936,23.2308855 9.10978936,22.5188706 8.67063191,22.0797132 L6.59062427,19.9997055 L8.67063191,17.9196979 C9.10978935,17.4805404 9.10978935,16.7685255 8.6706319,16.3293681 C8.23147445,15.8902107 7.51945955,15.8902106 7.0803021,16.3293681 L5.00029446,18.4093757 L2.92028682,16.3293681 C2.48112937,15.8902106 1.76911446,15.8902106 1.32995701,16.3293681 C0.890799559,16.7685255 0.890799559,17.4805405 1.32995701,17.9196979 L3.40996465,19.9997055 L1.32995701,22.0797132 C1.11871786,22.290419 1,22.5765177 1,22.8748781 C1,23.1732385 1.11871786,23.4593372 1.32995701,23.670043 L1.32995701,23.670043 Z" id="Shape"></path>
            </g>
        </g>
    </g>
</svg>