<?xml version="1.0" encoding="UTF-8"?>
<svg width="35px" height="56px" viewBox="0 0 35 56" version="1.1" xmlns="http://www.w3.org/2000/svg" xmlns:xlink="http://www.w3.org/1999/xlink">
    <!-- Generator: Sketch 46.2 (44496) - http://www.bohemiancoding.com/sketch -->
    <title>Group 8</title>
    <desc>Created with Sketch.</desc>
    <defs></defs>
    <g id="Page-1" stroke="none" stroke-width="1" fill="none" fill-rule="evenodd">
        <g id="Group-8" fill-rule="nonzero">
            <g id="noun_1124280_cc">
                <g id="Group">
                    <path d="M24.7692308,47.7560976 L24.7692308,18.3109756 L26.9903846,18.3109756 L26.9903846,16.9695122 L8.81730769,16.9695122 L8.81730769,18.3109756 L11.0384615,18.3109756 L11.0384615,47.7560976 C11.0384615,51.5121951 14.1346154,54.597561 17.9038462,54.597561 C21.6730769,54.597561 24.7692308,51.5121951 24.7692308,47.7560976 Z M12.3846154,47.7560976 L12.3846154,44.1341463 L17.3653846,44.1341463 L17.3653846,42.7926829 L12.3846154,42.7926829 L12.3846154,35.4146341 L17.3653846,35.4146341 L17.3653846,34.0731707 L12.3846154,34.0731707 L12.3846154,26.695122 L17.3653846,26.695122 L17.3653846,25.3536585 L12.3846154,25.3536585 L12.3846154,18.3109756 L23.3557692,18.3109756 L23.3557692,47.7560976 C23.3557692,50.7743902 20.8653846,53.2560976 17.8365385,53.2560976 C14.8076923,53.2560976 12.3846154,50.7743902 12.3846154,47.7560976 Z" id="Shape" stroke="#E54D8C" fill="#E54D8C"></path>
                    <path d="M13.9326923,14.8902439 C16.6923077,14.8902439 18.9134615,12.6768293 18.9134615,9.92682927 C18.9134615,7.17682927 16.6923077,4.96341463 13.9326923,4.96341463 C11.1730769,4.96341463 8.95192308,7.17682927 8.95192308,9.92682927 C8.95192308,12.6768293 11.2403846,14.8902439 13.9326923,14.8902439 Z M13.9326923,6.37195122 C15.9519231,6.37195122 17.5673077,7.98170732 17.5673077,9.99390244 C17.5673077,12.0060976 15.9519231,13.6158537 13.9326923,13.6158537 C11.9134615,13.6158537 10.2980769,12.0060976 10.2980769,9.99390244 C10.2980769,7.98170732 11.9807692,6.37195122 13.9326923,6.37195122 Z" id="Shape" fill="#DC4A85"></path>
                    <path d="M25.2403846,12.4085366 C27.7980769,12.4085366 29.8846154,10.3292683 29.8846154,7.7804878 C29.8846154,5.23170732 27.7980769,3.15243902 25.2403846,3.15243902 C22.6826923,3.15243902 20.5961538,5.23170732 20.5961538,7.7804878 C20.5961538,10.3292683 22.6826923,12.4085366 25.2403846,12.4085366 Z M25.2403846,4.49390244 C27.0576923,4.49390244 28.5384615,5.9695122 28.5384615,7.7804878 C28.5384615,9.59146341 27.0576923,11.0670732 25.2403846,11.0670732 C23.4230769,11.0670732 21.9423077,9.59146341 21.9423077,7.7804878 C21.9423077,5.9695122 23.4230769,4.49390244 25.2403846,4.49390244 Z" id="Shape" stroke="#E04B89" stroke-width="0.5" fill="#E44D8B"></path>
                    <path d="M2.75961538,13.4817073 C2.75961538,14.6890244 3.76923077,15.695122 4.98076923,15.695122 C6.19230769,15.695122 7.20192308,14.6890244 7.20192308,13.4817073 C7.20192308,12.2743902 6.19230769,11.2682927 4.98076923,11.2682927 C3.76923077,11.2012195 2.75961538,12.2073171 2.75961538,13.4817073 Z M5.92307692,13.4817073 C5.92307692,13.9512195 5.51923077,14.3536585 5.04807692,14.3536585 C4.57692308,14.3536585 4.17307692,13.9512195 4.17307692,13.4817073 C4.17307692,13.0121951 4.57692308,12.6097561 5.04807692,12.6097561 C5.51923077,12.5426829 5.92307692,12.945122 5.92307692,13.4817073 Z" id="Shape" fill="#DE4A87"></path>
                    <path d="M30.6923077,26.1585366 C32.7788462,26.1585366 34.5288462,24.4817073 34.5288462,22.3353659 C34.5288462,20.1890244 32.8461538,18.5121951 30.6923077,18.5121951 C28.6057692,18.5121951 26.8557692,20.1890244 26.8557692,22.3353659 C26.8557692,24.4817073 28.6057692,26.1585366 30.6923077,26.1585366 Z M30.6923077,19.9207317 C32.0384615,19.9207317 33.1826923,20.9939024 33.1826923,22.402439 C33.1826923,23.8109756 32.0384615,24.8170732 30.6923077,24.8170732 C29.3461538,24.8170732 28.2019231,23.7439024 28.2019231,22.3353659 C28.2019231,20.9268293 29.3461538,19.9207317 30.6923077,19.9207317 Z" id="Shape" stroke="#E54D8C" stroke-width="0.5" fill="#E54D8C"></path>
                    <path d="M21.1346154,2.48170732 C21.1346154,1.34146341 20.1923077,0.402439024 19.0480769,0.402439024 C17.9038462,0.402439024 16.9615385,1.34146341 16.9615385,2.48170732 C16.9615385,3.62195122 17.9038462,4.56097561 19.0480769,4.56097561 C20.1923077,4.56097561 21.1346154,3.68902439 21.1346154,2.48170732 Z M18.2403846,2.48170732 C18.2403846,2.07926829 18.5769231,1.74390244 18.9807692,1.74390244 C19.3846154,1.74390244 19.7211538,2.07926829 19.7211538,2.48170732 C19.7211538,2.88414634 19.3846154,3.2195122 18.9807692,3.2195122 C18.5769231,3.2195122 18.2403846,2.95121951 18.2403846,2.48170732 Z" id="Shape" fill="#DE4A87"></path>
                    <path d="M3.70192308,24.8170732 C5.45192308,24.8170732 6.86538462,23.4085366 6.86538462,21.597561 C6.86538462,19.7865854 5.45192308,18.3780488 3.70192308,18.3780488 C1.95192308,18.3780488 0.471153846,19.7865854 0.471153846,21.597561 C0.471153846,23.4085366 1.95192308,24.8170732 3.70192308,24.8170732 Z M3.70192308,19.7865854 C4.71153846,19.7865854 5.51923077,20.5914634 5.51923077,21.6646341 C5.51923077,22.7378049 4.71153846,23.4756098 3.70192308,23.4756098 C2.69230769,23.4756098 1.81730769,22.6707317 1.81730769,21.597561 C1.81730769,20.5243902 2.69230769,19.7865854 3.70192308,19.7865854 Z" id="Shape" fill="#DD4A86"></path>
                </g>
            </g>
        </g>
    </g>
</svg>