<?xml version="1.0" encoding="UTF-8"?>
<svg width="50px" height="50px" viewBox="0 0 50 50" version="1.1" xmlns="http://www.w3.org/2000/svg" xmlns:xlink="http://www.w3.org/1999/xlink">
    <!-- Generator: Sketch 46.2 (44496) - http://www.bohemiancoding.com/sketch -->
    <title>Group 13</title>
    <desc>Created with Sketch.</desc>
    <defs></defs>
    <g id="Page-1" stroke="none" stroke-width="1" fill="none" fill-rule="evenodd">
        <g id="Group-13" transform="translate(1.000000, 0.000000)" fill-rule="nonzero" fill="#E54D8C">
            <path d="M21.2264228,16.7713147 C21.2168699,16.7713147 21.2073171,16.7713147 21.1977642,16.7713147 L20.3189024,16.7426295 C12.3231707,16.4844622 5.60752033,9.7625498 5.3495935,1.75936255 L5.32093496,0.879681275 C5.31138211,0.669322709 5.39735772,0.458964143 5.55020325,0.305976096 C5.70304878,0.152988048 5.90365854,0.0669322709 6.12337398,0.0764940239 L7.00223577,0.105179283 C14.9979675,0.363346614 21.7136179,7.08525896 21.9715447,15.0884462 L22.0002033,15.9681275 C22.0097561,16.1784861 21.9237805,16.3888446 21.770935,16.5418327 C21.6276423,16.685259 21.4365854,16.7713147 21.2264228,16.7713147 Z M6.88760163,1.64462151 L6.88760163,1.70199203 C7.11686992,8.91155378 13.1638211,14.9641434 20.3666667,15.1936255 L20.4239837,15.1936255 L20.4239837,15.136255 C20.1947154,7.93625498 14.1477642,1.88366534 6.9449187,1.64462151 L6.88760163,1.64462151 Z" id="Shape"></path>
            <path d="M23.7197154,25.5394422 C23.3280488,25.5394422 22.9936992,25.2430279 22.9554878,24.8414343 C22.6497967,21.8486056 21.6658537,18.9227092 20.0800813,16.3888446 C18.7713415,14.247012 17.0613821,12.3920319 15.0075203,10.8717131 C14.6636179,10.6231076 14.596748,10.1354582 14.845122,9.79123506 C15.0934959,9.44701195 15.5806911,9.38007968 15.9245935,9.62868526 C18.1408537,11.263745 19.975,13.2621514 21.3888211,15.5665339 C23.0892276,18.2916335 24.1591463,21.447012 24.4839431,24.6788845 C24.5221545,25.0996016 24.2164634,25.4820717 23.7961382,25.5203187 C23.7770325,25.5394422 23.748374,25.5394422 23.7197154,25.5394422 Z" id="Shape"></path>
            <path d="M25.7735772,19.8023904 C25.5729675,19.8023904 25.3723577,19.7258964 25.229065,19.5729084 C25.0762195,19.4199203 24.9997967,19.2191235 24.9997967,18.9992032 L25.0284553,18.1195219 C25.2863821,10.1163347 32.0020325,3.38486056 39.9977642,3.13625498 L40.876626,3.10756972 C41.0772358,3.09800797 41.2969512,3.18406375 41.4497967,3.33705179 C41.6026423,3.49003984 41.679065,3.69083665 41.679065,3.91075697 L41.6504065,4.78087649 C41.3924797,12.7840637 34.6768293,19.5059761 26.6810976,19.7641434 L25.8022358,19.7928287 C25.7831301,19.8023904 25.7831301,19.8023904 25.7735772,19.8023904 Z M40.1123984,4.67569721 L40.0550813,4.67569721 C32.8522358,4.90517928 26.8052846,10.9577689 26.5760163,18.1673307 L26.5760163,18.2247012 L26.6333333,18.2247012 C33.8361789,17.9952191 39.8831301,11.9426295 40.1123984,4.73306773 L40.1123984,4.67569721 Z" id="Shape"></path>
            <path d="M23.8152439,25.5394422 C23.7579268,25.5394422 23.6910569,25.5298805 23.624187,25.5203187 C23.2134146,25.4151394 22.9554878,24.9944223 23.0605691,24.5832669 C23.5764228,22.4988048 24.426626,20.4812749 25.5920732,18.6071713 C27.0345528,16.2836653 28.878252,14.285259 31.0658537,12.6693227 C31.4097561,12.4207171 31.8873984,12.4876494 32.1453252,12.8318725 C32.3936992,13.1760956 32.3268293,13.6541833 31.9829268,13.9123506 C29.9481707,15.4135458 28.2477642,17.2589641 26.9103659,19.4199203 C25.8404472,21.1601594 25.047561,23.0247012 24.5699187,24.9561753 C24.4743902,25.3099602 24.1591463,25.5394422 23.8152439,25.5394422 Z" id="Shape"></path>
            <path d="M8.6976,49 C8.4864,49 8.2848,48.9133595 8.1312,48.759332 C7.8336,48.4416503 7.8432,47.9410609 8.16,47.6426326 L11.232,44.7064833 C13.1424,42.8870334 15.648,41.8762279 18.2784,41.8762279 L31.7184,41.8762279 C33.9168,41.8762279 36.0096,41.0483301 37.6224,39.5465619 L46.0224,31.6911591 C46.2528,31.4793713 46.3776,31.1905697 46.3776,30.8825147 C46.3776,30.5744597 46.2624,30.2760314 46.0416,30.0642436 C45.6096,29.640668 44.928,29.6214145 44.4768,30.0353635 L35.1744,38.5550098 C35.0304,38.6897839 34.8384,38.7571709 34.6464,38.7571709 L24.0288,38.7571709 C22.512,38.7571709 21.2832,37.5249509 21.2832,36.0039293 C21.2832,34.4829077 22.512,33.2506876 24.0288,33.2506876 L28.3584,33.2506876 C29.232,33.2506876 29.9424,32.5383104 29.9424,31.662279 C29.9424,30.7862475 29.232,30.0738703 28.3584,30.0738703 L15.9456,30.0738703 C13.6704,30.0738703 11.52,30.9499018 9.8976,32.5479371 L1.3824,40.8943026 C1.0752,41.2023576 0.576,41.1927308 0.2688,40.8846758 C-0.0384,40.5766208 -0.0288,40.0760314 0.2784,39.7679764 L8.7936,31.421611 C10.7136,29.5347741 13.2576,28.4950884 15.9456,28.4950884 L28.3584,28.4950884 C30.096,28.4950884 31.5168,29.9102161 31.5168,31.6526523 C31.5168,33.3950884 30.1056,34.8102161 28.3584,34.8102161 L24.0288,34.8102161 C23.3856,34.8102161 22.8576,35.3396857 22.8576,35.9846758 C22.8576,36.629666 23.3856,37.1591356 24.0288,37.1591356 L34.3488,37.1591356 L43.4208,28.851277 C44.4864,27.8789784 46.128,27.9078585 47.1456,28.9282908 C47.6736,29.4481336 47.952,30.1508841 47.9424,30.8921415 C47.9328,31.6333988 47.6256,32.3265226 47.088,32.8367387 L38.688,40.6921415 C36.7872,42.4730845 34.3104,43.4453831 31.7088,43.4453831 L18.2688,43.4453831 C16.0416,43.4453831 13.92,44.2925344 12.3072,45.8328094 L9.2352,48.7689587 C9.0912,48.932613 8.8896,49 8.6976,49 Z" id="Shape" stroke="#E54D8C"></path>
        </g>
    </g>
</svg>