<?xml version="1.0" encoding="UTF-8"?>
<svg width="49px" height="52px" viewBox="0 0 49 52" version="1.1" xmlns="http://www.w3.org/2000/svg" xmlns:xlink="http://www.w3.org/1999/xlink">
    <!-- Generator: Sketch 46.2 (44496) - http://www.bohemiancoding.com/sketch -->
    <title>noun_1052776_cc</title>
    <desc>Created with Sketch.</desc>
    <defs></defs>
    <g id="Page-1" stroke="none" stroke-width="1" fill="none" fill-rule="evenodd">
        <g id="noun_1052776_cc" transform="translate(1.000000, 0.000000)" fill-rule="nonzero" stroke="#E54D8C" fill="#E54D8C">
            <g id="Group">
                <path d="M46.1402439,13.2826087 C44.3060976,10.173913 38.9756098,9.60869565 32.2121951,11.2478261 C30.3207317,4.69130435 27.1682927,0.508695652 23.5,0.508695652 C19.8317073,0.508695652 16.6792683,4.69130435 14.7878049,11.1913043 C8.02439024,9.60869565 2.69390244,10.173913 0.859756098,13.2826087 C0.17195122,14.4695652 -1.11022302e-16,15.9956522 0.458536585,17.6913043 C1.14634146,20.2347826 3.09512195,23.1173913 6.01829268,26 C3.15243902,28.8826087 1.20365854,31.7652174 0.458536585,34.3086957 C-1.11022302e-16,36.0043478 0.114634146,37.473913 0.859756098,38.7173913 C2.00609756,40.6956522 4.64268293,41.6565217 8.08170732,41.6565217 C10.0304878,41.6565217 12.2658537,41.373913 14.7304878,40.7521739 C16.6219512,47.2521739 19.8317073,51.4347826 23.4426829,51.4347826 C27.1109756,51.4347826 30.2634146,47.2521739 32.154878,40.7521739 C34.5621951,41.3173913 36.854878,41.6565217 38.8036585,41.6565217 C42.3,41.6565217 44.8792683,40.6956522 46.0256098,38.7173913 C46.7134146,37.5304348 46.8853659,36.0043478 46.4268293,34.3086957 C45.7390244,31.7652174 43.7902439,28.8826087 40.8670732,26 C43.7329268,23.1173913 45.6817073,20.2347826 46.4268293,17.6913043 C46.9426829,15.9391304 46.8280488,14.4695652 46.1402439,13.2826087 Z M23.5,1.63913043 C26.5378049,1.63913043 29.3463415,5.53913043 31.0658537,11.5304348 C28.6585366,12.2086957 26.0792683,13.1130435 23.5,14.3 C20.8634146,13.1130435 18.2841463,12.2086957 15.9341463,11.5304348 C17.6536585,5.59565217 20.4621951,1.63913043 23.5,1.63913043 Z M33.0146341,26 C33.0146341,27.8086957 32.9573171,29.5043478 32.7853659,31.2 C31.352439,32.1608696 29.8621951,33.1217391 28.2573171,34.026087 C26.652439,34.9304348 25.047561,35.7217391 23.5,36.4565217 C21.895122,35.7217391 20.347561,34.9304348 18.7426829,34.026087 C17.1378049,33.1217391 15.647561,32.2173913 14.2146341,31.2 C14.0426829,29.5043478 13.9853659,27.7521739 13.9853659,26 C13.9853659,24.1913043 14.0426829,22.4956522 14.2146341,20.8 C15.647561,19.8391304 17.1378049,18.8782609 18.7426829,17.973913 C20.347561,17.0695652 21.952439,16.2782609 23.5,15.5434783 C25.104878,16.2782609 26.652439,17.0695652 28.2573171,17.973913 C29.8621951,18.8782609 31.352439,19.7826087 32.7853659,20.8 C32.9573171,22.4956522 33.0146341,24.1913043 33.0146341,26 Z M33.9890244,21.6478261 C35.9378049,23.0608696 37.7146341,24.5304348 39.3195122,26 C37.7719512,27.4695652 35.995122,28.9391304 33.9890244,30.3521739 C34.1036585,28.9391304 34.1609756,27.4695652 34.1609756,26 C34.1609756,24.5304348 34.1036585,23.0608696 33.9890244,21.6478261 Z M32.6134146,32.6695652 C32.3268293,35.0434783 31.9256098,37.3043478 31.4097561,39.3391304 C29.3463415,38.773913 27.1682927,37.9826087 24.8756098,37.0782609 C26.1939024,36.4565217 27.5121951,35.7782609 28.8304878,35.0434783 C30.1487805,34.2521739 31.4097561,33.5173913 32.6134146,32.6695652 Z M22.1243902,37.0782609 C19.8890244,38.0391304 17.6536585,38.773913 15.5902439,39.3391304 C15.0743902,37.3043478 14.6158537,35.0434783 14.3865854,32.6695652 C15.5902439,33.4608696 16.8512195,34.2521739 18.1695122,34.9869565 C19.4878049,35.7782609 20.8060976,36.4565217 22.1243902,37.0782609 Z M13.0109756,30.3521739 C11.0621951,28.9391304 9.28536585,27.4695652 7.6804878,26 C9.22804878,24.5304348 11.004878,23.0608696 13.0109756,21.6478261 C12.8963415,23.0608696 12.8390244,24.5304348 12.8390244,26 C12.8390244,27.4695652 12.8963415,28.9391304 13.0109756,30.3521739 Z M14.3865854,19.3304348 C14.6731707,16.9565217 15.0743902,14.6956522 15.5902439,12.6608696 C17.6536585,13.226087 19.8317073,14.0173913 22.1243902,14.9217391 C20.8060976,15.5434783 19.4878049,16.2217391 18.1695122,16.9565217 C16.8512195,17.7478261 15.5902439,18.4826087 14.3865854,19.3304348 Z M28.8304878,17.0130435 C27.5121951,16.2782609 26.1939024,15.6 24.8756098,14.9782609 C27.1109756,14.0173913 29.3463415,13.2826087 31.4097561,12.7173913 C31.9256098,14.7521739 32.3841463,17.0130435 32.6134146,19.3869565 C31.4097561,18.4826087 30.1487805,17.7478261 28.8304878,17.0130435 Z M1.89146341,13.8478261 C2.80853659,12.2652174 5.04390244,11.473913 8.02439024,11.473913 C9.91585366,11.473913 12.0939024,11.7565217 14.4439024,12.3782609 C13.8134146,14.7521739 13.354878,17.3521739 13.1256098,20.1782609 C10.7756098,21.8173913 8.65487805,23.5130435 6.87804878,25.2086957 C4.12682927,22.4391304 2.23536585,19.726087 1.60487805,17.4086957 C1.20365854,15.9391304 1.31829268,14.7521739 1.89146341,13.8478261 Z M1.89146341,38.1521739 C1.31829268,37.1913043 1.26097561,36.0043478 1.60487805,34.5913043 C2.23536585,32.273913 4.12682927,29.5043478 6.87804878,26.7913043 C8.65487805,28.4869565 10.7756098,30.1826087 13.1256098,31.8217391 C13.4121951,34.6478261 13.8707317,37.2478261 14.4439024,39.6217391 C8.31097561,41.1478261 3.38170732,40.7521739 1.89146341,38.1521739 Z M23.5,50.3608696 C20.4621951,50.3608696 17.6536585,46.4608696 15.9341463,40.4695652 C18.3414634,39.7913043 20.9207317,38.8869565 23.5,37.7 C26.1365854,38.8869565 28.7158537,39.7913043 31.1231707,40.4695652 C29.3463415,46.4043478 26.5378049,50.3608696 23.5,50.3608696 Z M45.1085366,38.1521739 C43.5609756,40.7521739 38.6890244,41.1478261 32.5560976,39.6217391 C33.1865854,37.2478261 33.645122,34.6478261 33.8743902,31.8217391 C36.2243902,30.1826087 38.345122,28.4869565 40.1219512,26.7913043 C42.8731707,29.5608696 44.7646341,32.273913 45.395122,34.5913043 C45.7963415,36.0608696 45.6817073,37.2478261 45.1085366,38.1521739 Z M45.395122,17.3521739 C44.7646341,19.6695652 42.8731707,22.4391304 40.1219512,25.1521739 C38.345122,23.4565217 36.2243902,21.7608696 33.8743902,20.1217391 C33.5878049,17.2956522 33.1292683,14.6956522 32.5560976,12.3217391 C38.7463415,10.8521739 43.6182927,11.1913043 45.1085366,13.7913043 C45.6817073,14.7521739 45.7963415,15.9391304 45.395122,17.3521739 Z" id="Shape"></path>
                <path d="M23.5,21.9304348 C21.2073171,21.9304348 19.3731707,23.7391304 19.3731707,26 C19.3731707,28.2608696 21.2073171,30.0695652 23.5,30.0695652 C25.7926829,30.0695652 27.6268293,28.2608696 27.6268293,26 C27.6268293,23.7391304 25.7926829,21.9304348 23.5,21.9304348 Z M23.5,28.9391304 C21.8378049,28.9391304 20.5195122,27.6391304 20.5195122,26 C20.5195122,24.3608696 21.8378049,23.0608696 23.5,23.0608696 C25.1621951,23.0608696 26.4804878,24.3608696 26.4804878,26 C26.4804878,27.6391304 25.1621951,28.9391304 23.5,28.9391304 Z" id="Shape"></path>
            </g>
        </g>
    </g>
</svg>