<?xml version="1.0" encoding="UTF-8"?>
<svg width="27px" height="33px" viewBox="0 0 27 33" version="1.1" xmlns="http://www.w3.org/2000/svg" xmlns:xlink="http://www.w3.org/1999/xlink">
    <!-- Generator: Sketch 46.2 (44496) - http://www.bohemiancoding.com/sketch -->
    <title>Group 7</title>
    <desc>Created with Sketch.</desc>
    <defs></defs>
    <g id="Page-1" stroke="none" stroke-width="1" fill="none" fill-rule="evenodd">
        <g id="Group-7" fill-rule="nonzero" fill="#FFFFFF">
            <g id="noun_1191164_cc">
                <path d="M23.7218948,30.1525313 C23.4057561,30.4670093 23.1640151,30.8460266 23.0138523,31.2626466 L22.8028011,31.8477977 C22.6840019,32.133325 22.7349302,32.4599119 22.9352917,32.6974174 C23.1356532,32.9349229 23.4528847,33.0447469 23.7605729,32.9831259 C24.0682612,32.9215049 24.3164001,32.6984536 24.406109,32.4028554 L24.6171601,31.8177043 C24.6855111,31.6306773 24.7947297,31.4606224 24.9371408,31.3194898 C25.7098603,30.5470903 26.9999955,28.9186983 26.9999955,26.6984676 L26.9999955,21.0308608 C27.0025941,19.6139865 25.8799917,18.4408944 24.4401495,18.3558841 C24.1545398,18.3478651 23.8694816,18.385124 23.5959449,18.4662269 C23.2250489,17.6662644 22.4661394,17.1059105 21.580747,16.9782711 C21.203401,16.9267163 20.8191881,16.9552211 20.4540062,17.0618642 C20.1035969,16.3014 19.3991851,15.7553382 18.5647581,15.5973144 C18.1097083,15.5142048 17.6404767,15.5487735 17.2031379,15.6976261 L17.0635718,10.5850769 C17.0315288,9.33625373 16.091475,8.29021122 14.8339187,8.10403602 C14.1124385,8.00901733 13.3837789,8.21898676 12.8288957,8.68180037 C12.2740125,9.14461397 11.94496,9.81685452 11.9234555,10.5315774 L11.5830504,22.7930017 C11.5264113,22.743863 11.474035,22.6901781 11.4264641,22.6325031 L10.4460975,20.9840487 C9.61729335,19.6066184 8.03025847,18.8495474 6.41570161,19.0614092 C5.82915859,19.140826 5.31874595,19.4958713 5.04774092,20.0129687 C4.77673589,20.5300661 4.77910164,21.1444115 5.05408138,21.6594803 L8.82236538,28.8150429 C9.16413078,29.4569836 9.683257,29.9912467 10.3201476,30.3564982 L10.4188651,30.4033103 L12.3047091,31.1723661 L12.3693861,31.1957722 C12.6767054,31.2930859 12.9190671,31.5274326 13.0229638,31.8277354 L13.2203987,32.3894805 C13.3761483,32.8214726 13.8569528,33.0497448 14.2983341,32.9012532 C14.7397153,32.7527617 14.9770903,32.2828762 14.8305147,31.8477977 L14.6330797,31.2860526 C14.3581694,30.5010087 13.7302627,29.8842303 12.9310544,29.6141922 L11.1269076,28.8785736 C10.7809823,28.6737663 10.498512,28.3801168 10.3099355,28.0292685 L6.52122718,20.8770497 C6.50287917,20.8438525 6.50251572,20.8038714 6.5202573,20.7703577 C6.53799888,20.7368439 6.57152821,20.7141748 6.6097325,20.7098636 C7.54949011,20.5825858 8.47527257,21.021458 8.9585274,21.8233226 L9.97974258,23.5152454 C9.99623635,23.544121 10.0144218,23.5720322 10.0342074,23.5988384 C10.7150175,24.4748933 11.8996271,25.0299509 12.8697815,24.3979877 C13.0995473,24.2488078 13.241607,23.9996257 13.2510352,23.7292435 L13.6356929,10.5783894 C13.6430137,10.3362955 13.7548048,10.1086833 13.9431567,9.95237864 C14.1315085,9.79607398 14.3786456,9.72582783 14.6228676,9.75917784 C15.0534041,9.83341827 15.3684825,10.1991842 15.3717587,10.6285453 L15.5589815,17.5333288 C15.570867,17.9309578 15.8663723,18.2652783 16.2654998,18.3326499 C16.6646274,18.4000215 17.0567997,18.1817789 17.2031379,17.8108576 C17.3660913,17.3860472 17.8193714,17.1407362 18.2720098,17.2323939 C18.7236177,17.3395973 19.0373052,17.742534 19.024305,18.1987293 L19.024305,18.3893213 C19.0237967,18.7385934 19.2444114,19.0513589 19.5775015,19.1735881 C19.9105917,19.2958174 20.2859348,19.2017418 20.5186832,18.9376916 C20.7287631,18.6967932 21.0504096,18.5792613 21.3696958,18.6267255 C21.8445172,18.7177463 22.1836658,19.1313455 22.1730518,19.6064357 L22.1730518,19.7903404 C22.1725435,20.1396124 22.3931582,20.4523779 22.7262483,20.5746072 C23.0593385,20.6968364 23.4346816,20.6027609 23.66743,20.3387106 C23.8509108,20.1231741 24.1235127,20.0003436 24.409513,20.0043385 C24.9361634,20.0484418 25.3363367,20.488458 25.3217986,21.0074548 L25.3217986,26.6984676 C25.2979702,28.3870467 24.1950578,29.6743792 23.7218948,30.1525313 Z" id="Shape"></path>
                <path d="M0,3.36734694 C0,3.78772089 0.385344013,4.12850131 0.860689943,4.12850131 L2.94700236,4.12850131 L2.94700236,5.97353951 C2.94700236,6.39391346 3.33234638,6.73469388 3.80769231,6.73469388 C4.28303824,6.73469388 4.66838225,6.39391346 4.66838225,5.97353951 L4.66838225,4.12850131 L6.75469467,4.12850131 C7.2300406,4.12850131 7.61538462,3.78772089 7.61538462,3.36734694 C7.61538462,2.94697299 7.2300406,2.60619257 6.75469467,2.60619257 L4.66838225,2.60619257 L4.66838225,0.761154371 C4.66838225,0.34078042 4.28303824,0 3.80769231,0 C3.33234638,0 2.94700236,0.34078042 2.94700236,0.761154371 L2.94700236,2.60619257 L0.860689943,2.60619257 C0.385344013,2.60619257 0,2.94697299 0,3.36734694 Z" id="Shape"></path>
                <path d="M11.8612596,3.36734694 C11.4280825,3.36734694 11.0769231,3.81963071 11.0769231,4.37755102 C11.0769231,4.93547133 11.4280825,5.3877551 11.8612596,5.3877551 L16.5233558,5.3877551 C16.9565329,5.3877551 17.3076923,4.93547133 17.3076923,4.37755102 C17.3076923,3.81963071 16.9565329,3.36734694 16.5233558,3.36734694 L11.8612596,3.36734694 Z" id="Shape"></path>
                <path d="M0.920739469,15.9410494 C1.06661272,16.0833125 1.26468106,16.1632653 1.47123825,16.1632653 C1.67779544,16.1632653 1.87586378,16.0833125 2.02173703,15.9410494 L3.46174232,14.5402279 L4.90174761,15.9410494 C5.20577969,16.2368085 5.69871309,16.2368085 6.00274517,15.9410494 C6.30677725,15.6452903 6.30677725,15.16577 6.00274517,14.8700109 L4.56273988,13.4691894 L6.00274517,12.068368 C6.30677724,11.7726089 6.30677724,11.2930886 6.00274516,10.9973295 C5.69871308,10.7015704 5.20577969,10.7015704 4.90174761,10.9973295 L3.46174232,12.398151 L2.02173703,10.9973295 C1.71770495,10.7015704 1.22477155,10.7015704 0.920739469,10.9973295 C0.616707387,11.2930886 0.616707387,11.7726089 0.920739469,12.068368 L2.36074476,13.4691894 L0.920739469,14.8700109 C0.774496978,15.0119148 0.692307692,15.2045936 0.692307692,15.4055301 C0.692307692,15.6064667 0.774496978,15.7991454 0.920739469,15.9410494 L0.920739469,15.9410494 Z" id="Shape"></path>
            </g>
        </g>
    </g>
</svg>