<svg xmlns="http://www.w3.org/2000/svg" xmlns:xlink="http://www.w3.org/1999/xlink" width="62" height="62" viewBox="0 0 62 62">
    <defs>
        <filter id="a" width="106.1%" height="117%" x="-3%" y="-7%" filterUnits="objectBoundingBox">
            <feOffset dy="2" in="SourceAlpha" result="shadowOffsetOuter1"/>
            <feGaussianBlur in="shadowOffsetOuter1" result="shadowBlurOuter1" stdDeviation="5.5"/>
            <feColorMatrix in="shadowBlurOuter1" result="shadowMatrixOuter1" values="0 0 0 0 0 0 0 0 0 0 0 0 0 0 0 0 0 0 0.5 0"/>
            <feMerge>
                <feMergeNode in="shadowMatrixOuter1"/>
                <feMergeNode in="SourceGraphic"/>
            </feMerge>
        </filter>
        <rect id="c" width="738" height="265" rx="4"/>
        <filter id="b" width="102.3%" height="106.4%" x="-1.2%" y="-2.5%" filterUnits="objectBoundingBox">
            <feOffset dy="2" in="SourceAlpha" result="shadowOffsetOuter1"/>
            <feGaussianBlur in="shadowOffsetOuter1" result="shadowBlurOuter1" stdDeviation="2.5"/>
            <feColorMatrix in="shadowBlurOuter1" values="0 0 0 0 0.702168367 0 0 0 0 0.658781544 0 0 0 0 0.658781544 0 0 0 0.5 0"/>
        </filter>
    </defs>
    <g fill="none" fill-rule="evenodd">
        <g filter="url(#a)" transform="translate(-31 -30)">
            <use fill="#000" filter="url(#b)" xlink:href="#c"/>
            <use fill="#FFF" xlink:href="#c"/>
        </g>
        <g fill-rule="nonzero">
            <g fill="#FF877F">
                <path d="M13.544 35.682c-3.385-3.71-6.077-7.66-7.998-11.745C.746 13.735 1.09 3.634 1.108 3.208L3.6 2.056c.34.26 8.366 6.493 13.166 16.693 1.72 3.656 2.968 7.743 3.712 12.15l.169 1.002-.867.545c-.175.11-.339.236-.505.362-.131.1-.264.198-.4.294l-2.275 1.875c-.117.111-.237.22-.358.327-.144.128-.288.256-.42.396l-1.15 1.218-1.13-1.236zM45.18 35.7c-.132-.14-.278-.267-.42-.395-.12-.108-.24-.216-.358-.327l-2.276-1.875a16.313 16.313 0 0 1-.4-.294c-.166-.125-.33-.25-.505-.362l-.867-.545.17-1.003c.743-4.406 1.992-8.493 3.712-12.149C49.034 8.55 57.06 2.317 57.4 2.057l2.494 1.152c.017.426.36 10.527-4.44 20.728-1.92 4.084-4.613 8.035-7.997 11.745l-1.13 1.238-1.147-1.22z"/>
            </g>
            <path fill="#C34177" d="M60.202.29a3.1 3.1 0 0 0-3.208.358c-.351.273-8.679 6.792-13.642 17.436-1.91 4.094-3.003 8.141-3.66 11.641a21.56 21.56 0 0 0-17.383 0c-.657-3.5-1.75-7.547-3.66-11.641C13.686 7.44 5.36.92 5.007.648a3.1 3.1 0 0 0-4.995 2.33C-.006 3.421-.362 13.99 4.6 24.633c2.502 5.364 5.826 9.608 8.584 12.603A21.56 21.56 0 0 0 9.3 49.592c0 4.162 1.185 8.205 3.422 11.695a1.55 1.55 0 0 0 2.14.468 1.55 1.55 0 0 0 .47-2.14A18.522 18.522 0 0 1 12.4 49.591c0-10.255 8.344-18.597 18.6-18.597 10.257 0 18.6 8.342 18.6 18.597 0 3.564-1.011 7.027-2.924 10.014a1.548 1.548 0 0 0 .47 2.14c.71.463 1.676.254 2.14-.47A21.609 21.609 0 0 0 52.7 49.593c0-4.59-1.443-8.844-3.886-12.355 2.758-2.995 6.083-7.24 8.584-12.603 4.964-10.644 4.607-21.211 4.59-21.657A3.099 3.099 0 0 0 60.201.291zM18.458 31.978l-8.246-16.933A1.552 1.552 0 0 0 7.424 16.4l8.579 17.615c-.276.266-.574.508-.836.788-2.528-2.794-5.506-6.657-7.755-11.48C2.708 13.239 3.11 3.099 3.11 3.099s8.027 6.21 12.73 16.295c1.965 4.212 3.01 8.386 3.594 11.873-.342.216-.649.476-.976.71zm36.131-8.654c-2.25 4.825-5.227 8.687-7.755 11.48-.261-.28-.56-.521-.836-.787l8.58-17.615a1.551 1.551 0 0 0-2.789-1.358l-8.246 16.934c-.327-.234-.634-.493-.975-.71.584-3.487 1.628-7.66 3.594-11.872C50.864 9.31 58.892 3.1 58.892 3.1s.401 10.14-4.303 20.223z"/>
        </g>
    </g>
</svg>
