<svg xmlns="http://www.w3.org/2000/svg" xmlns:xlink="http://www.w3.org/1999/xlink" width="45" height="47" viewBox="0 0 45 47">
    <defs>
        <filter id="a" width="106.1%" height="117%" x="-3%" y="-7%" filterUnits="objectBoundingBox">
            <feOffset dy="2" in="SourceAlpha" result="shadowOffsetOuter1"/>
            <feGaussianBlur in="shadowOffsetOuter1" result="shadowBlurOuter1" stdDeviation="5.5"/>
            <feColorMatrix in="shadowBlurOuter1" result="shadowMatrixOuter1" values="0 0 0 0 0 0 0 0 0 0 0 0 0 0 0 0 0 0 0.5 0"/>
            <feMerge>
                <feMergeNode in="shadowMatrixOuter1"/>
                <feMergeNode in="SourceGraphic"/>
            </feMerge>
        </filter>
        <rect id="c" width="738" height="265" rx="4"/>
        <filter id="b" width="102.3%" height="106.4%" x="-1.2%" y="-2.5%" filterUnits="objectBoundingBox">
            <feOffset dy="2" in="SourceAlpha" result="shadowOffsetOuter1"/>
            <feGaussianBlur in="shadowOffsetOuter1" result="shadowBlurOuter1" stdDeviation="2.5"/>
            <feColorMatrix in="shadowBlurOuter1" values="0 0 0 0 0.702168367 0 0 0 0 0.658781544 0 0 0 0 0.658781544 0 0 0 0.5 0"/>
        </filter>
    </defs>
    <g fill="none" fill-rule="evenodd">
        <g filter="url(#a)" transform="translate(-44 -35)">
            <use fill="#000" filter="url(#b)" xlink:href="#c"/>
            <use fill="#FFF" xlink:href="#c"/>
        </g>
        <g fill="#E54D8C" fill-rule="nonzero">
            <path d="M24.424 17.317l3.304 1.588c.134.065.28.095.423.095.293 0 .578-.127.735-.353.234-.338.095-.77-.31-.964l-3.304-1.588c-.405-.195-.924-.08-1.158.258-.234.338-.095.77.31.964zM16 21c-.552 0-1 .344-1 .77v3.46c0 .426.448.77 1 .77s1-.344 1-.77v-3.46c0-.426-.448-.77-1-.77zM27.728 28.095l-3.304 1.588c-.405.195-.544.626-.31.964.157.226.442.353.735.353.144 0 .29-.03.423-.095l3.304-1.588c.405-.195.544-.626.31-.964-.234-.338-.752-.453-1.158-.258z"/>
            <path d="M42.244 32.125a2.75 2.75 0 0 0-1.919.779l-5.281-3.043a2.755 2.755 0 0 0-1.92-3.319v-6.084a2.755 2.755 0 0 0 1.92-3.319l5.281-3.043A2.756 2.756 0 0 0 45 12.125a2.756 2.756 0 1 0-5.428.673l-5.281 3.043a2.749 2.749 0 0 0-3.838 0L25.172 12.8a2.755 2.755 0 0 0-1.92-3.319V.75a.75.75 0 0 0-1.504 0v8.73a2.755 2.755 0 0 0-1.92 3.318l-5.282 3.043a2.75 2.75 0 0 0-3.837 0l-5.281-3.043A2.756 2.756 0 1 0 0 12.125a2.756 2.756 0 0 0 4.675 1.971l5.281 3.043a2.755 2.755 0 0 0 1.92 3.319v6.084a2.755 2.755 0 0 0-1.92 3.319l-5.281 3.043A2.756 2.756 0 0 0 0 34.875a2.756 2.756 0 1 0 5.427-.673l5.281-3.043a2.749 2.749 0 0 0 3.838 0l5.281 3.043a2.755 2.755 0 0 0 1.92 3.319v8.729a.75.75 0 0 0 1.504 0v-8.73a2.755 2.755 0 0 0 1.92-3.318l5.281-3.043a2.75 2.75 0 0 0 3.837 0l5.282 3.043a2.756 2.756 0 1 0 5.428.673 2.756 2.756 0 0 0-2.756-2.75zm0-21.25c.69 0 1.252.56 1.252 1.25a1.253 1.253 0 0 1-2.505 0c0-.69.562-1.25 1.253-1.25zm-39.488 2.5c-.691 0-1.253-.56-1.253-1.25a1.253 1.253 0 0 1 2.505 0c0 .69-.562 1.25-1.252 1.25zm0 22.75c-.691 0-1.253-.56-1.253-1.25a1.253 1.253 0 0 1 2.505 0c0 .69-.562 1.25-1.252 1.25zm29.616-19.563c.69 0 1.252.561 1.252 1.25a1.253 1.253 0 0 1-2.505 0c0-.689.562-1.25 1.253-1.25zM22.5 10.875c.69 0 1.252.56 1.252 1.25a1.253 1.253 0 0 1-2.505 0c0-.69.562-1.25 1.253-1.25zm-11.125 6.938a1.253 1.253 0 0 1 2.505 0 1.253 1.253 0 0 1-2.505 0zm1.253 12.625c-.691 0-1.253-.561-1.253-1.25a1.253 1.253 0 0 1 2.505 0c0 .689-.562 1.25-1.252 1.25zm9.872 5.687c-.691 0-1.253-.56-1.253-1.25a1.253 1.253 0 0 1 2.505 0c0 .69-.562 1.25-1.252 1.25zm7.116-6.938c0 .233.03.458.084.674l-5.282 3.043a2.75 2.75 0 0 0-3.837 0L15.3 29.86a2.755 2.755 0 0 0-1.92-3.319v-6.084a2.755 2.755 0 0 0 1.92-3.319l5.281-3.043a2.75 2.75 0 0 0 3.837 0L29.7 17.14a2.755 2.755 0 0 0 1.92 3.319v6.084a2.755 2.755 0 0 0-2.004 2.645zm2.756 1.25c-.691 0-1.253-.56-1.253-1.25a1.253 1.253 0 0 1 2.505 0c0 .69-.562 1.25-1.252 1.25zm9.872 5.688c-.69 0-1.253-.56-1.253-1.25a1.253 1.253 0 0 1 2.505 0c0 .69-.561 1.25-1.252 1.25z"/>
        </g>
    </g>
</svg>
