<svg xmlns="http://www.w3.org/2000/svg" xmlns:xlink="http://www.w3.org/1999/xlink" width="164" height="168" viewBox="0 0 164 168">
    <defs>
        <filter id="a" width="106.1%" height="117%" x="-3%" y="-7%" filterUnits="objectBoundingBox">
            <feOffset dy="2" in="SourceAlpha" result="shadowOffsetOuter1"/>
            <feGaussianBlur in="shadowOffsetOuter1" result="shadowBlurOuter1" stdDeviation="5.5"/>
            <feColorMatrix in="shadowBlurOuter1" result="shadowMatrixOuter1" values="0 0 0 0 0 0 0 0 0 0 0 0 0 0 0 0 0 0 0.5 0"/>
            <feMerge>
                <feMergeNode in="shadowMatrixOuter1"/>
                <feMergeNode in="SourceGraphic"/>
            </feMerge>
        </filter>
        <rect id="b" width="738" height="265" rx="4"/>
        <filter id="c" width="102.3%" height="106.4%" x="-1.2%" y="-2.5%" filterUnits="objectBoundingBox">
            <feOffset dy="2" in="SourceAlpha" result="shadowOffsetOuter1"/>
            <feGaussianBlur in="shadowOffsetOuter1" result="shadowBlurOuter1" stdDeviation="2.5"/>
            <feColorMatrix in="shadowBlurOuter1" values="0 0 0 0 0.702168367 0 0 0 0 0.658781544 0 0 0 0 0.658781544 0 0 0 0.5 0"/>
        </filter>
    </defs>
    <g fill="none" fill-rule="evenodd" filter="url(#a)" transform="translate(-585 9)">
        <mask id="d" fill="#fff">
            <use xlink:href="#b"/>
        </mask>
        <use fill="#000" filter="url(#c)" xlink:href="#b"/>
        <use fill="#FFF" xlink:href="#b"/>
        <text fill="#535667" font-family="Roboto-Bold, Roboto" font-size="18" font-weight="bold" mask="url(#d)">
            <tspan x="96" y="80">Welcome to LMS</tspan>  <tspan x="96" y="113" font-family="Roboto-Regular, Roboto" font-weight="normal">This is your Ideaboard. You can write about your learnings, </tspan> <tspan x="96" y="146" font-family="Roboto-Regular, Roboto" font-weight="normal">experiences, discoveries, stories and share with all your buddies</tspan>
        </text>
        <g fill="#E54D8C" fill-rule="nonzero" mask="url(#d)">
            <path d="M635.5 72.779c1.871 0 3.631.739 4.955 2.082a3.792 3.792 0 0 0 5.422 0 3.929 3.929 0 0 0 0-5.5C643.105 66.547 639.42 65 635.5 65c-3.92 0-7.605 1.548-10.377 4.36a3.929 3.929 0 0 0 0 5.5 3.795 3.795 0 0 0 5.422 0 6.91 6.91 0 0 1 4.955-2.081zM705.123 69.356a3.933 3.933 0 0 0 0 5.504 3.793 3.793 0 0 0 5.422 0 6.942 6.942 0 0 1 9.91 0 3.793 3.793 0 0 0 5.422 0 3.933 3.933 0 0 0 0-5.504 14.537 14.537 0 0 0-20.754 0zM714.486 107.114c-21.773 21.708-57.2 21.708-78.972 0a3.823 3.823 0 0 0-5.396 0 3.796 3.796 0 0 0 0 5.38C642.492 124.831 658.746 131 675 131c16.254 0 32.508-6.169 44.882-18.506a3.796 3.796 0 0 0 0-5.38 3.824 3.824 0 0 0-5.396 0z"/>
            <path d="M766 77.224c0-10.45-7.532-19.163-17.435-20.98V-8.11a24.81 24.81 0 0 0-11.077-20.704 24.65 24.65 0 0 0-21.916-2.734l-24.08-8.198c-18.504-6.3-37.981-6.946-56.326-1.87-24.016 6.646-37.784 20.7-39.91 40.677a29.232 29.232 0 0 0-4.39 8.297l-1.868 5.545c-1.003 2.977.102 6.105 2.75 7.784 2.649 1.68 5.94 1.34 8.192-.845a13.388 13.388 0 0 1 2.495-1.902v38.305C592.532 58.061 585 66.774 585 77.224c0 10.868 8.146 19.858 18.635 21.165 2.634 14.587 9.556 28.043 20.14 38.81C637.591 151.26 655.96 159 675.5 159h.007c19.514-.002 37.86-7.625 51.657-21.463 10.779-10.81 17.775-24.403 20.322-39.164C757.916 97.012 766 88.05 766 77.224zm-32.753-99.628c4.86 3.234 7.647 8.444 7.647 14.293V42.23c-11.905-1.856-21.046-12.206-21.046-24.658l-.318-42.296c4.684-1.239 9.568-.44 13.717 2.32zm-135.86 34.436l.746-2.212a21.549 21.549 0 0 1 11.898-12.912 21.45 21.45 0 0 1 17.526.276c11.615 5.426 25.656 2.492 34.145-7.133l.95-1.077a3.854 3.854 0 0 0-.33-5.43 3.828 3.828 0 0 0-5.415.332l-.95 1.078c-6.256 7.092-16.603 9.253-25.161 5.256a29.11 29.11 0 0 0-23.785-.374c-.693.298-1.366.63-2.03.978 4.459-11.921 15.25-20.316 32.226-25.014 16.858-4.666 34.776-4.064 51.82 1.738l22.832 7.773.3 19.877c-10.167 13.864-24.994 23.249-41.89 26.476-17.302 3.304-34.952-.192-49.7-9.845-7.207-4.716-16.293-4.514-23.181.213zm-4.716 65.192c0-6.185 4.128-11.419 9.764-13.084v20.85c0 1.802.065 3.593.191 5.373-5.733-1.603-9.955-6.884-9.955-13.139zm129.07 54.872c-12.35 12.386-28.77 19.208-46.234 19.21h-.007c-17.467 0-33.899-6.929-46.263-19.508-12.337-12.551-19.13-29.174-19.13-46.808V16.125c2.172.163 4.327.868 6.268 2.137 16.419 10.746 36.067 14.639 55.327 10.96 15.634-2.986 29.68-10.705 40.474-22.09v10.44c0 16.7 12.57 30.504 28.717 32.414v35.732c0 17.52-6.801 33.99-19.152 46.378zm26.676-41.745c.094-1.536.148-3.08.148-4.633V64.14c5.636 1.665 9.764 6.899 9.764 13.084 0 6.24-4.2 11.51-9.912 13.127z"/>
        </g>
    </g>
</svg>
