<svg xmlns="http://www.w3.org/2000/svg" xmlns:xlink="http://www.w3.org/1999/xlink" width="98" height="113" viewBox="0 0 98 113">
    <defs>
        <filter id="a" width="106.1%" height="117%" x="-3%" y="-7%" filterUnits="objectBoundingBox">
            <feOffset dy="2" in="SourceAlpha" result="shadowOffsetOuter1"/>
            <feGaussianBlur in="shadowOffsetOuter1" result="shadowBlurOuter1" stdDeviation="5.5"/>
            <feColorMatrix in="shadowBlurOuter1" result="shadowMatrixOuter1" values="0 0 0 0 0 0 0 0 0 0 0 0 0 0 0 0 0 0 0.5 0"/>
            <feMerge>
                <feMergeNode in="shadowMatrixOuter1"/>
                <feMergeNode in="SourceGraphic"/>
            </feMerge>
        </filter>
        <rect id="b" width="738" height="265" rx="4"/>
        <filter id="c" width="102.3%" height="106.4%" x="-1.2%" y="-2.5%" filterUnits="objectBoundingBox">
            <feOffset dy="2" in="SourceAlpha" result="shadowOffsetOuter1"/>
            <feGaussianBlur in="shadowOffsetOuter1" result="shadowBlurOuter1" stdDeviation="2.5"/>
            <feColorMatrix in="shadowBlurOuter1" values="0 0 0 0 0.702168367 0 0 0 0 0.658781544 0 0 0 0 0.658781544 0 0 0 0.5 0"/>
        </filter>
    </defs>
    <g fill="none" fill-rule="evenodd" filter="url(#a)" transform="translate(11 -142)">
        <mask id="d" fill="#fff">
            <use xlink:href="#b"/>
        </mask>
        <use fill="#000" filter="url(#c)" xlink:href="#b"/>
        <use fill="#FFF" xlink:href="#b"/>
        <g fill="#E54D8C" fill-rule="nonzero" mask="url(#d)">
            <path d="M43.2 226.55c-4.246 3.588-11.155 3.588-15.4 0-.87-.734-2.279-.734-3.148 0-.87.735-.87 1.925 0 2.66 2.99 2.527 6.92 3.79 10.848 3.79 3.929 0 7.857-1.263 10.848-3.79.87-.735.87-1.925 0-2.66-.87-.734-2.278-.734-3.147 0z"/>
            <path d="M85.437 248.653c-5.117-5.562-5.334-19.736-4.728-34.402 2.229-2.055 3.625-4.971 3.625-8.203 0-2.838-1.077-5.432-2.849-7.414.745-14.958 1.14-24.961-3.694-34.198-3.298-6.302-8.633-11.568-15.859-15.651-8.42-4.759-18.027-7.094-27.78-6.752-8.567.3-16.543 4.218-22.044 10.792-7.102.414-13.562 4.208-17.038 10.072a33.369 33.369 0 0 0-.858 1.539c-4.836 9.242-4.442 19.244-3.697 34.2-1.77 1.983-2.847 4.576-2.847 7.412 0 3.23 1.395 6.146 3.623 8.201.606 14.667.39 28.842-4.728 34.405a2.116 2.116 0 0 0-.502 1.941c.17.69.676 1.251 1.351 1.502 5.76 2.136 11.338 2.9 16.373 2.9 5.23 0 9.873-.825 13.518-1.792 6.334-1.682 10.801-4.042 12.326-4.912a39.876 39.876 0 0 0 12.743 0c1.524.871 5.991 3.23 12.325 4.912 4.862 1.29 9.37 1.795 13.448 1.795 6.793 0 12.392-1.401 16.443-2.904a2.157 2.157 0 0 0 1.35-1.501 2.115 2.115 0 0 0-.501-1.942zM75.05 210.475v-10.646V199.418c2.849.907 4.915 3.535 4.915 6.63 0 3.12-2.099 5.767-4.983 6.653.043-.737.068-1.479.068-2.226zm-76.952-44.08c.237-.45.488-.902.748-1.34 2.878-4.855 8.38-7.912 14.362-7.978l.03-.001a2.2 2.2 0 0 0 1.689-.84c4.714-6.036 11.778-9.651 19.38-9.917 8.935-.313 17.734 1.825 25.445 6.183 6.484 3.664 11.246 8.338 14.152 13.894 3.869 7.392 3.984 15.434 3.35 29.252a11.554 11.554 0 0 0-2.204-.651v-2.18c0-1.185-.978-2.145-2.185-2.145-1.206 0-2.184.96-2.184 2.144v4.87c-30.092.316-46.382-13.912-50.729-18.363a2.21 2.21 0 0 0-1.983-.624 2.176 2.176 0 0 0-1.615 1.292c-3.174 7.58-8.72 11.546-17.454 12.48-1.108.119-1.947 1.038-1.947 2.132v.394c-.765.145-1.503.365-2.206.652-.635-13.815-.52-21.856 3.351-29.253zm-1.078 46.306c-2.884-.886-4.983-3.533-4.983-6.653 0-3.095 2.066-5.723 4.915-6.63v11.057c0 .747.025 1.489.068 2.226zm-5.337 36.29c3.896-6.527 4.571-17.377 4.076-32.184.58.176 1.18.306 1.795.39 2.485 13.731 12.443 24.957 25.585 29.47-6.32 2.67-18.284 6.208-31.456 2.324zm44.318-4.474c-19.122 0-34.68-15.271-34.68-34.043v-14c8.194-1.323 14.027-5.282 17.724-12.037 3.148 2.818 8.236 6.684 15.408 10.072 10.784 5.094 22.962 7.606 36.228 7.467v8.498c0 18.772-15.558 34.043-34.68 34.043zm19.98 4.585a52.347 52.347 0 0 1-7.126-2.432C62 242.158 71.963 230.93 74.448 217.197a11.557 11.557 0 0 0 1.793-.39c-.495 14.809.18 25.66 4.078 32.186-7.715 2.288-15.888 2.327-24.338.11z"/>
            <path d="M9.664 203.69c-.885.986-.885 2.585 0 3.57.884.986 2.318.986 3.203 0 1.452-1.617 3.814-1.617 5.266 0 .442.494 1.022.74 1.602.74.58 0 1.16-.246 1.601-.74.885-.985.885-2.584 0-3.57-3.218-3.587-8.454-3.587-11.672 0zM62.336 207.26c.885-.985.885-2.584 0-3.57-3.218-3.587-8.454-3.587-11.672 0-.885.986-.885 2.585 0 3.57.884.986 2.318.986 3.203 0 1.452-1.617 3.814-1.617 5.266 0 .442.494 1.022.74 1.602.74.58 0 1.16-.246 1.601-.74z"/>
        </g>
    </g>
</svg>
