<?xml version="1.0" encoding="UTF-8"?>
<svg width="32px" height="29px" viewBox="0 0 32 29" version="1.1" xmlns="http://www.w3.org/2000/svg" xmlns:xlink="http://www.w3.org/1999/xlink">
    <!-- Generator: Sketch 46.2 (44496) - http://www.bohemiancoding.com/sketch -->
    <title>solid_thumbsup</title>
    <desc>Created with Sketch.</desc>
    <defs></defs>
    <g id="Page-1" stroke="none" stroke-width="1" fill="none" fill-rule="evenodd">
        <g id="solid_thumbsup" transform="translate(-1.000000, -1.000000)">
            <polygon id="Shape" points="0 0 34 0 34 34 0 34"></polygon>
            <path d="M1.41666667,29.75 L7.08333333,29.75 L7.08333333,12.75 L1.41666667,12.75 L1.41666667,29.75 Z M32.5833333,14.1666667 C32.5833333,12.6083333 31.3083333,11.3333333 29.75,11.3333333 L20.8108333,11.3333333 L22.1566667,4.85916667 L22.1991667,4.40583333 C22.1991667,3.825 21.9583333,3.28666667 21.5758333,2.90416667 L20.0741667,1.41666667 L10.7525,10.7525 C10.2283333,11.2625 9.91666667,11.9708333 9.91666667,12.75 L9.91666667,26.9166667 C9.91666667,28.475 11.1916667,29.75 12.75,29.75 L25.5,29.75 C26.6758333,29.75 27.6816667,29.0416667 28.1066667,28.0216667 L32.385,18.0341667 C32.5125,17.7083333 32.5833333,17.3683333 32.5833333,17 L32.5833333,14.2941667 L32.5691667,14.28 L32.5833333,14.1666667 Z" id="Shape" fill="#E54D8C" fill-rule="nonzero"></path>
        </g>
    </g>
</svg>