<?xml version="1.0" encoding="UTF-8"?>
<svg width="38px" height="32px" viewBox="0 0 38 32" version="1.1" xmlns="http://www.w3.org/2000/svg" xmlns:xlink="http://www.w3.org/1999/xlink">
    <!-- Generator: Sketch 46.2 (44496) - http://www.bohemiancoding.com/sketch -->
    <title>outline_thumbsup</title>
    <desc>Created with Sketch.</desc>
    <defs></defs>
    <g id="Page-1" stroke="none" stroke-width="1" fill="none" fill-rule="evenodd">
        <g id="outline_thumbsup" transform="translate(2.000000, 1.000000)">
            <polygon id="Shape" points="2 0 36 0 36 34 2 34"></polygon>
            <path d="M0,29 L5.63636364,29 L5.63636364,12.2 L0,12.2 L0,29 Z M34,13.6 C34,12.06 32.7318182,10.8 31.1818182,10.8 L22.2904545,10.8 L23.6290909,4.402 L23.6713636,3.954 C23.6713636,3.38 23.4318182,2.848 23.0513636,2.47 L21.5577273,1 L12.2859091,10.226 C11.7645455,10.73 11.4545455,11.43 11.4545455,12.2 L11.4545455,26.2 C11.4545455,27.74 12.7227273,29 14.2727273,29 L26.9545455,29 C28.1240909,29 29.1245455,28.3 29.5472727,27.292 L33.8027273,17.422 C33.9295455,17.1 34,16.764 34,16.4 L34,13.726 L33.9859091,13.712 L34,13.6 Z" id="Shape" stroke="#E54D8C" stroke-width="2.5" fill-rule="nonzero"></path>
        </g>
    </g>
</svg>