<?xml version="1.0" encoding="UTF-8"?>
<svg width="60px" height="60px" viewBox="0 0 60 60" version="1.1" xmlns="http://www.w3.org/2000/svg" xmlns:xlink="http://www.w3.org/1999/xlink">
    <!-- Generator: Sketch 46.2 (44496) - http://www.bohemiancoding.com/sketch -->
    <title>Star 2</title>
    <desc>Created with Sketch.</desc>
    <defs></defs>
    <g id="Page-1" stroke="none" stroke-width="1" fill="none" fill-rule="evenodd">
        <polygon id="Star-2" fill="#AA87CC" points="30 57.3376744 27.6432022 60.0615983 25.7409891 57.0020522 22.9876388 59.3232819 21.5868493 56.0034498 18.5047429 57.8648288 17.6398691 54.366456 14.3048985 55.7221511 13.9972364 52.1313791 10.4915196 52.9480085 10.7486448 49.353254 7.15850414 49.6107097 7.97408545 46.1004876 4.38792215 45.79243 5.74187724 42.4531735 2.24799452 41.5871882 4.10698452 38.5011209 0.791413377 37.0985312 3.10966377 34.3416424 0.054044569 32.4369847 2.77447235 30.0771581 0.054044569 27.7173315 3.10966377 25.8126738 0.791413377 23.055785 4.10698452 21.6531953 2.24799452 18.567128 5.74187724 17.7011427 4.38792215 14.3618862 7.97408545 14.0538286 7.15850414 10.5436065 10.7486448 10.8010621 10.4915196 7.20630765 13.9972364 8.0229371 14.3048985 4.43216507 17.6398691 5.78786018 18.5047429 2.28948733 21.5868493 4.15086639 22.9876388 0.831034272 25.7409891 3.15226395 27.6432022 0.0927178406 30 2.81664176 32.3567978 0.0927178406 34.2590109 3.15226395 37.0123612 0.831034272 38.4131507 4.15086639 41.4952571 2.28948733 42.3601309 5.78786018 45.6951015 4.43216507 46.0027636 8.0229371 49.5084804 7.20630765 49.2513552 10.8010621 52.8414959 10.5436065 52.0259146 14.0538286 55.6120778 14.3618862 54.2581228 17.7011427 57.7520055 18.567128 55.8930155 21.6531953 59.2085866 23.055785 56.8903362 25.8126738 59.9459554 27.7173315 57.2255277 30.0771581 59.9459554 32.4369847 56.8903362 34.3416424 59.2085866 37.0985312 55.8930155 38.5011209 57.7520055 41.5871882 54.2581228 42.4531735 55.6120778 45.79243 52.0259146 46.1004876 52.8414959 49.6107097 49.2513552 49.353254 49.5084804 52.9480085 46.0027636 52.1313791 45.6951015 55.7221511 42.3601309 54.366456 41.4952571 57.8648288 38.4131507 56.0034498 37.0123612 59.3232819 34.2590109 57.0020522 32.3567978 60.0615983"></polygon>
    </g>
</svg>